<?xml version="1.0" encoding="UTF-8" standalone="no"?>
<!-- Created with Inkscape (http://www.inkscape.org/) -->

<svg
   width="34.088776mm"
   height="34.051262mm"
   viewBox="0 0 34.088776 34.051262"
   version="1.1"
   id="svg5"
   inkscape:version="1.3.2 (1:1.3.2+202311252150+091e20ef0f)"
   sodipodi:docname="cookbook-icon.svg"
   inkscape:export-filename="cookbook-icon.png"
   inkscape:export-xdpi="23.84"
   inkscape:export-ydpi="23.84"
   xmlns:inkscape="http://www.inkscape.org/namespaces/inkscape"
   xmlns:sodipodi="http://sodipodi.sourceforge.net/DTD/sodipodi-0.dtd"
   xmlns="http://www.w3.org/2000/svg"
   xmlns:svg="http://www.w3.org/2000/svg"
   xmlns:ns2="http://www.iki.fi/pav/software/textext/">
  <sodipodi:namedview
     id="namedview7"
     pagecolor="#ffffff"
     bordercolor="#666666"
     borderopacity="1.0"
     inkscape:pageshadow="2"
     inkscape:pageopacity="0.0"
     inkscape:pagecheckerboard="0"
     inkscape:document-units="mm"
     showgrid="true"
     inkscape:snap-center="true"
     inkscape:zoom="1.4127833"
     inkscape:cx="74.321377"
     inkscape:cy="36.098954"
     inkscape:window-width="1222"
     inkscape:window-height="656"
     inkscape:window-x="58"
     inkscape:window-y="27"
     inkscape:window-maximized="1"
     inkscape:current-layer="layer1"
     fit-margin-top="0"
     fit-margin-left="0"
     fit-margin-right="0"
     fit-margin-bottom="0"
     inkscape:showpageshadow="2"
     inkscape:deskcolor="#d1d1d1">
    <inkscape:grid
       id="grid1"
       units="px"
       originx="0"
       originy="0"
       spacingx="0.26458335"
       spacingy="0.26458334"
       empcolor="#3f3fff"
       empopacity="0.25098039"
       color="#3f3fff"
       opacity="0.1254902"
       empspacing="5"
       dotted="false"
       gridanglex="30"
       gridanglez="30"
       visible="true" />
  </sodipodi:namedview>
  <defs
     id="defs2">
    <inkscape:path-effect
       effect="bspline"
       id="path-effect12"
       is_visible="true"
       lpeversion="1"
       weight="33.333333"
       steps="2"
       helper_size="0"
       apply_no_weight="true"
       apply_with_weight="true"
       only_selected="false" />
    <inkscape:path-effect
       effect="bspline"
       id="path-effect28721"
       is_visible="true"
       lpeversion="1"
       weight="33.333333"
       steps="2"
       helper_size="0"
       apply_no_weight="true"
       apply_with_weight="true"
       only_selected="false" />
    <inkscape:path-effect
       effect="bspline"
       id="path-effect28616"
       is_visible="true"
       lpeversion="1"
       weight="33.333333"
       steps="2"
       helper_size="0"
       apply_no_weight="true"
       apply_with_weight="true"
       only_selected="false" />
  </defs>
  <g
     inkscape:label="Layer 1"
     inkscape:groupmode="layer"
     id="layer1"
     transform="translate(-9.56458, -88.7482)">
    <path
       id="circle1"
       style="fill:#e1e1e1;fill-opacity:1;stroke:#000000;stroke-linecap:round;paint-order:fill markers stroke;stroke-opacity:1"
       d="m 32.901496,120.46417 c -2.19188,0 -3.968748,-1.77687 -3.968747,-3.96875 -1e-6,-2.19188 1.776867,-3.96875 3.968747,-3.96875 l -16.722337,0.0341 c -2.19188,0 -3.968748,1.77687 -3.968747,3.96875 -10e-7,2.19188 1.776867,3.96875 3.968747,3.96875 z"
       sodipodi:nodetypes="csccscc" />
    <path
       style="fill:#cccccc;stroke:#000000;stroke-width:1;stroke-linecap:butt;stroke-linejoin:miter;stroke-opacity:1;stroke-dasharray:none"
       d="m 37.081243,119.17531 c 0,0.33073 0.264583,1.32291 1.5875,1.32291 1.322917,0 1.5875,-0.99218 1.5875,-1.32291 L 39.99166,101.97739 c 0,0 2.499557,-1.53022 2.645832,-3.955307 0.146275,-2.425083 -1.837817,-6.760309 -4.042678,-6.760309 -2.204861,0 -3.894821,4.101031 -3.894821,6.760309 0,2.659277 2.645834,3.955297 2.645834,3.955297 z"
       id="path2"
       sodipodi:nodetypes="zzzczszcz" />
    <path
       id="path5"
       style="fill:#417de9;fill-opacity:1;stroke:#000000;stroke-linecap:round;paint-order:fill markers stroke;stroke-opacity:1"
       d="m 32.901496,91.359955 -16.722337,0.0341 c -2.19188,0 -3.968748,1.77687 -3.968747,3.96875 v 21.166715 c -10e-7,-2.19188 1.776867,-3.96875 3.968747,-3.96875 l 16.722337,-0.0341 z"
       sodipodi:nodetypes="ccccccc" />
    <path
       id="path6"
       style="fill:#999999;fill-opacity:1;stroke:none;stroke-linecap:round;stroke-opacity:1;paint-order:fill markers stroke;stroke-width:0.5;stroke-dasharray:none"
       d="m 32.901496,112.52667 -16.722337,0.0341 c -2.19188,0 -3.968748,1.77687 -3.968747,3.96875 3.350187,-2.64588 15.280394,-1.74721 20.691084,-4.00285 z"
       sodipodi:nodetypes="cccc" />
    <path
       id="path7"
       style="fill:none;fill-opacity:1;stroke:#000000;stroke-linecap:round;paint-order:fill markers stroke;stroke-opacity:1"
       d="m 32.901496,120.46417 c -2.19188,0 -3.968748,-1.77687 -3.968747,-3.96875 -1e-6,-2.19188 1.776867,-3.96875 3.968747,-3.96875 l -16.722337,0.0341 c -2.19188,0 -3.968748,1.77687 -3.968747,3.96875 -10e-7,2.19188 1.776867,3.96875 3.968747,3.96875 z"
       sodipodi:nodetypes="csccscc" />
    <path
       style="fill:#d40000;fill-opacity:1;stroke:#800000;stroke-width:1;stroke-linecap:butt;stroke-linejoin:miter;stroke-dasharray:none;stroke-opacity:1"
       d="m 17.502077,114.19154 h 5.291666 v 6.61459 l -2.645833,-2.64584 -2.645833,2.64584 z"
       id="path8" />
    <path
       style="fill:#999999;stroke:none;stroke-width:1;stroke-linecap:butt;stroke-linejoin:miter;stroke-dasharray:none;stroke-opacity:1"
       d="m 37.081243,119.17531 c 0,0.33073 0.264583,1.32291 1.5875,1.32291 0.0041,-14.61822 -0.09244,-19.17751 0.969517,-20.01435 2.752164,-2.168733 0.881482,-6.443981 -1.043446,-9.222096 -2.204861,0 -3.894821,4.101031 -3.894821,6.760309 0,2.659277 2.645834,3.955297 2.645834,3.955297 z"
       id="path9"
       sodipodi:nodetypes="zcsczcz" />
    <path
       style="fill:none;stroke:#000000;stroke-width:1;stroke-linecap:butt;stroke-linejoin:miter;stroke-opacity:1;stroke-dasharray:none"
       d="m 37.081243,119.17531 c 0,0.33073 0.264583,1.32291 1.5875,1.32291 1.322917,0 1.5875,-0.99218 1.5875,-1.32291 L 39.99166,101.97739 c 0,0 2.499557,-1.53022 2.645832,-3.955307 0.146275,-2.425083 -1.837817,-6.760309 -4.042678,-6.760309 -2.204861,0 -3.894821,4.101031 -3.894821,6.760309 0,2.659277 2.645834,3.955297 2.645834,3.955297 z"
       id="path10"
       sodipodi:nodetypes="zzzczszcz" />
    <g
       id="g10"
       transform="matrix(0.56761502,-0.66234878,0.66234878,0.56761502,-40.366177,63.929629)"
       style="stroke-width:1.14641">
      <path
         style="fill:none;stroke:#333333;stroke-width:3.43922;stroke-linecap:butt;stroke-linejoin:miter;stroke-miterlimit:4;stroke-dasharray:none;stroke-opacity:1"
         d="m 18.528846,117.25062 c 0,0 8.17502,-4.71678 8.17502,-4.71678 0,0 8.176588,4.72383 8.176588,4.72383"
         id="path11"
         inkscape:path-effect="#path-effect12"
         inkscape:original-d="m 18.528846,117.25062 8.17502,-4.71678 8.176588,4.72383"
         sodipodi:nodetypes="ccc"
         transform="translate(-13.17054,-34.368952)" />
      <path
         style="fill:none;stroke:#b3b3b3;stroke-width:2.29281;stroke-linecap:butt;stroke-linejoin:miter;stroke-miterlimit:4;stroke-dasharray:none;stroke-opacity:1"
         d="m 18.528846,117.25062 c 0,0 8.17502,-4.71678 8.17502,-4.71678 0,0 8.176588,4.72383 8.176588,4.72383"
         id="path28614"
         inkscape:path-effect="#path-effect28616"
         inkscape:original-d="m 18.528846,117.25062 8.17502,-4.71678 8.176588,4.72383"
         sodipodi:nodetypes="ccc"
         transform="translate(-13.17054,-34.368952)" />
      <circle
         style="opacity:1;fill:#d40000;fill-opacity:1;stroke:#800000;stroke-width:1.14641;stroke-linecap:round;stroke-miterlimit:4;stroke-dasharray:none;stroke-dashoffset:0;paint-order:fill markers stroke"
         id="path28264"
         cx="13.536146"
         cy="78.164909"
         r="4.011795" />
      <circle
         style="fill:#ffffff;fill-opacity:1;stroke:#333333;stroke-width:1.14641;stroke-linecap:round;stroke-miterlimit:4;stroke-dasharray:none;stroke-dashoffset:0;paint-order:fill markers stroke"
         id="path28264-3"
         cx="21.709915"
         cy="82.888733"
         r="2.7532666" />
      <circle
         style="fill:#ffffff;fill-opacity:1;stroke:#333333;stroke-width:1.14641;stroke-linecap:round;stroke-miterlimit:4;stroke-dasharray:none;stroke-dashoffset:0;paint-order:fill markers stroke"
         id="circle28579"
         cx="5.3583069"
         cy="82.881683"
         r="2.7532666" />
    </g>
    <path
       id="path12"
       style="fill:#dce9ff;fill-opacity:1;stroke:none;stroke-linecap:round;stroke-opacity:1;paint-order:fill markers stroke"
       d="m 32.901496,91.359955 -16.722337,0.0341 c -2.19188,0 -3.968748,1.77687 -3.968747,3.96875 v 21.166715 c 2.381251,-5.02715 0.458958,-21.630997 2.91545,-22.899467 2.703286,-1.395908 7.667885,-0.913103 17.775634,-2.270098 z"
       sodipodi:nodetypes="ccccsc" />
    <path
       id="path13"
       style="fill:none;fill-opacity:1;stroke:#000000;stroke-linecap:round;paint-order:fill markers stroke;stroke-opacity:1"
       d="m 32.901496,91.359955 -16.722337,0.0341 c -2.19188,0 -3.968748,1.77687 -3.968747,3.96875 v 21.166715 c -10e-7,-2.19188 1.776867,-3.96875 3.968747,-3.96875 l 16.722337,-0.0341 z"
       sodipodi:nodetypes="ccccccc" />
    <g
       transform="matrix(0.711624,0,0,0.711624,21.779907,103.82245)"
       ns2:version="1.9.0"
       ns2:texconverter="pdflatex"
       ns2:pdfconverter="inkscape"
       ns2:text="$\\boldsymbol{\\nabla^2}$"
       ns2:preamble="/home/michele/Dropbox/Apps/ShareLaTeX/ChemRev ML Descriptors/dirac-rep.tex"
       ns2:scale="2.017200681351866"
       ns2:alignment="middle center"
       ns2:stroke-to-path="0"
       ns2:inkscapeversion="1.3.2"
       id="g2776"
       ns2:jacobian_sqrt="0.711624"
       style="fill:#ffffff;stroke:#333333;stroke-width:1.40524;stroke-linejoin:round;stroke-dasharray:none;stroke-opacity:1;paint-order:markers stroke fill">
      <defs
         id="id-46cda875-66a3-4ded-aa5e-8236272ccc47"
         style="stroke-width:0">
        <g
           id="id-a94d9799-68a8-4c14-9cac-67ced4311c66"
           style="stroke-width:0">
          <symbol
             overflow="visible"
             id="id-455ca58e-f8f2-4902-a92a-94ebd6aa3566"
             style="stroke-width:0">
            <path
               style="stroke:none;stroke-width:0"
               d=""
               id="id-1988678d-252e-40cb-893a-33c6b8fdbe65" />
          </symbol>
          <symbol
             overflow="visible"
             id="id-114b666a-017f-4d93-afcd-e422fdccd11d"
             style="stroke-width:0">
            <path
               style="stroke:none;stroke-width:0"
               d="m 8.90625,-6.546875 c 0.0625,-0.125 0.0625,-0.15625 0.0625,-0.171875 0,-0.125 -0.09375,-0.125 -0.28125,-0.125 H 0.84375 c -0.21875,0 -0.25,0 -0.28125,0.140625 l 3.75,6.6875 C 4.4375,0.203125 4.5,0.25 4.765625,0.25 5.0625,0.25 5.109375,0.171875 5.21875,-0.015625 Z M 2.734375,-5.65625 h 5.0625 l -2.53125,4.484375 z m 0,0"
               id="id-648eefe6-da3e-4acb-9171-e62c3a6d15e2" />
          </symbol>
          <symbol
             overflow="visible"
             id="id-fd3d94c5-3bfa-44ab-b989-f8ec2bcc4e19"
             style="stroke-width:0">
            <path
               style="stroke:none;stroke-width:0"
               d=""
               id="id-1d89d469-4646-4ec0-93ff-78f0abb619f0" />
          </symbol>
          <symbol
             overflow="visible"
             id="id-52fe719e-4d9c-4282-8c31-dc341fa56756"
             style="stroke-width:0">
            <path
               style="stroke:none;stroke-width:0"
               d="M 4.03125,-1.59375 H 3.59375 C 3.578125,-1.5 3.515625,-1.015625 3.390625,-0.984375 c -0.15625,0.03125 -0.5625,0.03125 -0.734375,0.03125 H 1.703125 c 0.390625,-0.28125 0.78125,-0.578125 1.1875,-0.828125 0.5625,-0.359375 1.140625,-0.734375 1.140625,-1.4375 0,-0.828125 -0.796875,-1.359375 -1.90625,-1.359375 -0.9375,0 -1.65625,0.375 -1.65625,1.03125 0,0.40625 0.328125,0.5625 0.546875,0.5625 0.25,0 0.53125,-0.171875 0.53125,-0.546875 0,-0.34375 -0.25,-0.46875 -0.265625,-0.484375 0.25,-0.15625 0.5625,-0.171875 0.65625,-0.171875 0.578125,0 1.046875,0.375 1.046875,0.984375 0,0.53125 -0.359375,0.984375 -0.765625,1.328125 L 0.5625,-0.390625 C 0.484375,-0.3125 0.46875,-0.3125 0.46875,-0.171875 V 0 h 3.328125 z m 0,0"
               id="id-0425929f-e02a-444b-a057-61e66a6f52c9" />
          </symbol>
        </g>
      </defs>
      <g
         id="id-2cb72186-5a69-4e5d-9fa4-05552cd6d7d0"
         transform="translate(-149.275,-126.572)"
         style="fill:#ffffff;stroke:#333333;stroke-width:1.40524;stroke-linejoin:round;stroke-dasharray:none;stroke-opacity:1;paint-order:markers stroke fill">
        <g
           style="fill:#ffffff;fill-opacity:1;stroke:#333333;stroke-width:1.40524;stroke-linejoin:round;stroke-dasharray:none;stroke-opacity:1;paint-order:markers stroke fill"
           id="id-93337aa6-5010-4c4a-b360-854e90c68e5a">
          <g
             transform="translate(148.712,134.765)"
             id="g3719"
             style="fill:#ffffff;stroke:#333333;stroke-width:1.40524;stroke-linejoin:round;stroke-dasharray:none;stroke-opacity:1;paint-order:markers stroke fill">
            <path
               style="fill:#ffffff;stroke:#333333;stroke-width:1.40524;stroke-linejoin:round;stroke-dasharray:none;stroke-opacity:1;paint-order:markers stroke fill"
               d="m 8.90625,-6.546875 c 0.0625,-0.125 0.0625,-0.15625 0.0625,-0.171875 0,-0.125 -0.09375,-0.125 -0.28125,-0.125 H 0.84375 c -0.21875,0 -0.25,0 -0.28125,0.140625 l 3.75,6.6875 C 4.4375,0.203125 4.5,0.25 4.765625,0.25 5.0625,0.25 5.109375,0.171875 5.21875,-0.015625 Z M 2.734375,-5.65625 h 5.0625 l -2.53125,4.484375 z m 0,0"
               id="id-33beae16-e76a-414b-abbe-f42677f05ee4" />
          </g>
        </g>
        <g
           style="fill:#ffffff;fill-opacity:1;stroke:#333333;stroke-width:1.40524;stroke-linejoin:round;stroke-dasharray:none;stroke-opacity:1;paint-order:markers stroke fill"
           id="id-658520ed-fb86-422f-b51b-534f14757b84">
          <g
             transform="translate(158.26,131.15)"
             id="g2606"
             style="fill:#ffffff;stroke:#333333;stroke-width:1.40524;stroke-linejoin:round;stroke-dasharray:none;stroke-opacity:1;paint-order:markers stroke fill">
            <path
               style="fill:#ffffff;stroke:#333333;stroke-width:1.40524;stroke-linejoin:round;stroke-dasharray:none;stroke-opacity:1;paint-order:markers stroke fill"
               d="M 4.03125,-1.59375 H 3.59375 C 3.578125,-1.5 3.515625,-1.015625 3.390625,-0.984375 c -0.15625,0.03125 -0.5625,0.03125 -0.734375,0.03125 H 1.703125 c 0.390625,-0.28125 0.78125,-0.578125 1.1875,-0.828125 0.5625,-0.359375 1.140625,-0.734375 1.140625,-1.4375 0,-0.828125 -0.796875,-1.359375 -1.90625,-1.359375 -0.9375,0 -1.65625,0.375 -1.65625,1.03125 0,0.40625 0.328125,0.5625 0.546875,0.5625 0.25,0 0.53125,-0.171875 0.53125,-0.546875 0,-0.34375 -0.25,-0.46875 -0.265625,-0.484375 0.25,-0.15625 0.5625,-0.171875 0.65625,-0.171875 0.578125,0 1.046875,0.375 1.046875,0.984375 0,0.53125 -0.359375,0.984375 -0.765625,1.328125 L 0.5625,-0.390625 C 0.484375,-0.3125 0.46875,-0.3125 0.46875,-0.171875 V 0 h 3.328125 z m 0,0"
               id="id-939c0a0d-095a-48c1-b42c-5e7b9c785893" />
          </g>
        </g>
      </g>
    </g>
  </g>
</svg>
